<?xml version="1.0" encoding="iso-8859-1"?>
<!-- Generator: Adobe Illustrator 19.0.0, SVG Export Plug-In . SVG Version: 6.00 Build 0)  -->
<svg xmlns="http://www.w3.org/2000/svg" xmlns:xlink="http://www.w3.org/1999/xlink" version="1.1" id="Layer_1" x="0px" y="0px" viewBox="0 0 512 512" style="enable-background:new 0 0 512 512;" xml:space="preserve" width="512px" height="512px">
<g>
	<g>
		<path d="M505.742,230.581v-0.004c-2.783-35.326-39.815-47.935-59.174-49.668c-4.283-0.375-13.174-0.364-18.739-0.283v-11.152    C427.829,79.072,351.422,0,264.9,0H164.846C78.639,0,4.873,77.485,4.873,169.474v178.977c0,89.761,71.812,162.783,159.508,162.783    l84.949,0.079l0.016,0.688h118.663c0.043,0,0.228,0,0.543,0c9.261,0,129.198-3.003,137.611-144.394    C506.272,363.421,508.525,264.603,505.742,230.581z M484.302,366.628c-7.38,124.065-111.326,123.112-115.978,123.112h-87.326    h-0.174H164.846c-75.424,0-137.712-63.799-137.712-141.288V169.474c0-79.925,63.571-147.213,137.712-147.213H264.9    c74.663,0,140.668,68.67,140.668,147.213v33.984l11.204-0.337c5.978-0.174,22.579-0.533,28.068-0.038    c0.37,0.031,37.329,3.701,39.546,29.458C487.18,265.318,484.313,365.965,484.302,366.628z" fill="#ffffff"/>
	</g>
</g>
<g>
	<g>
		<path d="M261.161,136.348h-88.576c-25.75,0-45.163,17.223-45.163,40.799c0,23.842,20.261,42.679,45.163,42.679h88.576    c24.902,0,45.163-18.837,45.163-42.679C306.324,153.571,286.911,136.348,261.161,136.348z M261.161,197.565h-88.576    c-12.631,0-22.902-8.853-22.902-20.419c0-12.538,11.522-18.538,22.902-18.538h88.576c11.381,0,22.902,6,22.902,18.538    C284.063,188.712,273.791,197.565,261.161,197.565z" fill="#ffffff"/>
	</g>
</g>
<g>
	<g>
		<path d="M331.389,300.522h-162.25c-23,0-41.717,20.011-41.717,44.533c0,24.511,18.718,44.511,41.717,44.511h162.25    c23,0,41.717-20,41.717-44.511C373.107,320.533,354.389,300.522,331.389,300.522z M331.389,367.304h-162.25    c-10.728,0-19.457-10.011-19.457-22.25c0-12.25,8.728-22.272,19.457-22.272h162.25c10.728,0,19.457,10.022,19.457,22.272    C350.846,357.293,342.117,367.304,331.389,367.304z" fill="#ffffff"/>
	</g>
</g>
<g>
</g>
<g>
</g>
<g>
</g>
<g>
</g>
<g>
</g>
<g>
</g>
<g>
</g>
<g>
</g>
<g>
</g>
<g>
</g>
<g>
</g>
<g>
</g>
<g>
</g>
<g>
</g>
<g>
</g>
</svg>